<svg width="24" height="24" viewBox="0 0 24 24" fill="none" xmlns="http://www.w3.org/2000/svg">
<g id="Frame" clip-path="url(#clip0_7_393)">
<path id="Vector" d="M19.5 12.5713L12 19.9993L4.5 12.5713C4.0053 12.0899 3.61564 11.5113 3.35554 10.8719C3.09545 10.2325 2.97056 9.54621 2.98873 8.85619C3.00691 8.16618 3.16776 7.4874 3.46115 6.8626C3.75455 6.2378 4.17413 5.68052 4.69348 5.22584C5.21283 4.77117 5.8207 4.42895 6.47881 4.22074C7.13691 4.01253 7.831 3.94285 8.51736 4.01606C9.20373 4.08928 9.8675 4.30382 10.4669 4.64617C11.0662 4.98852 11.5882 5.45126 12 6.00526C12.4135 5.45528 12.9361 4.99658 13.5351 4.65787C14.1341 4.31915 14.7965 4.10771 15.4809 4.03678C16.1654 3.96585 16.8571 4.03696 17.5128 4.24565C18.1685 4.45435 18.774 4.79613 19.2915 5.24962C19.8091 5.70311 20.2274 6.25855 20.5204 6.88115C20.8134 7.50376 20.9747 8.18014 20.9943 8.86797C21.0139 9.55579 20.8913 10.2403 20.6341 10.8785C20.377 11.5168 19.9909 12.0951 19.5 12.5773" stroke="#131318" stroke-opacity="0.5" stroke-width="1.5" stroke-linecap="round" stroke-linejoin="round"/>
</g>
<defs>
<clipPath id="clip0_7_393">
<rect width="24" height="24" fill="white" transform="translate(0 -0.000732422)"/>
</clipPath>
</defs>
</svg>
